<svg width="1039" height="360" viewBox="0 0 1039 360" fill="none" xmlns="http://www.w3.org/2000/svg">
<rect y="32" width="1039" height="271" fill="#F43440"/>
<path d="M75.2 273C59.2 273 47.1 268.5 38.9 259.5C30.7 250.3 26.6 237.2 26.6 220.2V208.2H57.8V222.6C57.8 236.2 63.5 243 74.9 243C80.5 243 84.7 241.4 87.5 238.2C90.5 234.8 92 229.4 92 222C92 213.2 90 205.5 86 198.9C82 192.1 74.6 184 63.8 174.6C50.2 162.6 40.7 151.8 35.3 142.2C29.9 132.4 27.2 121.4 27.2 109.2C27.2 92.6 31.4 79.8 39.8 70.8C48.2 61.6 60.4 57 76.4 57C92.2 57 104.1 61.6 112.1 70.8C120.3 79.8 124.4 92.8 124.4 109.8V118.5H93.2V107.7C93.2 100.5 91.8 95.3 89 92.1C86.2 88.7 82.1 87 76.7 87C65.7 87 60.2 93.7 60.2 107.1C60.2 114.7 62.2 121.8 66.2 128.4C70.4 135 77.9 143 88.7 152.4C102.5 164.4 112 175.3 117.2 185.1C122.4 194.9 125 206.4 125 219.6C125 236.8 120.7 250 112.1 259.2C103.7 268.4 91.4 273 75.2 273ZM143.921 60H185.321L217.421 185.7H218.021V60H247.421V270H213.521L173.921 116.7H173.321V270H143.921V60ZM271.948 60H304.948V148.5L346.948 60H379.948L340.648 137.1L380.548 270H346.048L318.148 176.4L304.948 203.1V270H271.948V60ZM396.167 60H445.067C462.067 60 474.467 64 482.267 72C490.067 79.8 493.967 91.9 493.967 108.3V121.2C493.967 143 486.767 156.8 472.367 162.6V163.2C480.367 165.6 485.967 170.5 489.167 177.9C492.567 185.3 494.267 195.2 494.267 207.6V244.5C494.267 250.5 494.467 255.4 494.867 259.2C495.267 262.8 496.267 266.4 497.867 270H464.267C463.067 266.6 462.267 263.4 461.867 260.4C461.467 257.4 461.267 252 461.267 244.2V205.8C461.267 196.2 459.667 189.5 456.467 185.7C453.467 181.9 448.167 180 440.567 180H429.167V270H396.167V60ZM441.167 150C447.767 150 452.667 148.3 455.867 144.9C459.267 141.5 460.967 135.8 460.967 127.8V111.6C460.967 104 459.567 98.5 456.767 95.1C454.167 91.7 449.967 90 444.167 90H429.167V150H441.167ZM560.063 273C544.063 273 531.963 268.5 523.763 259.5C515.563 250.3 511.463 237.2 511.463 220.2V208.2H542.663V222.6C542.663 236.2 548.363 243 559.763 243C565.363 243 569.563 241.4 572.363 238.2C575.363 234.8 576.863 229.4 576.863 222C576.863 213.2 574.863 205.5 570.863 198.9C566.863 192.1 559.463 184 548.663 174.6C535.063 162.6 525.563 151.8 520.163 142.2C514.763 132.4 512.063 121.4 512.063 109.2C512.063 92.6 516.263 79.8 524.663 70.8C533.063 61.6 545.263 57 561.263 57C577.063 57 588.963 61.6 596.963 70.8C605.163 79.8 609.263 92.8 609.263 109.8V118.5H578.063V107.7C578.063 100.5 576.663 95.3 573.863 92.1C571.063 88.7 566.963 87 561.563 87C550.563 87 545.063 93.7 545.063 107.1C545.063 114.7 547.063 121.8 551.063 128.4C555.263 135 562.763 143 573.563 152.4C587.363 164.4 596.863 175.3 602.063 185.1C607.263 194.9 609.863 206.4 609.863 219.6C609.863 236.8 605.563 250 596.963 259.2C588.563 268.4 576.263 273 560.063 273Z" fill="black"/>
<path d="M702.331 60H747.031L781.231 270H748.231L742.231 228.3V228.9H704.731L698.731 270H668.131L702.331 60ZM738.331 200.4L723.631 96.6H723.031L708.631 200.4H738.331ZM797.241 60H845.841C862.241 60 874.541 64.4 882.741 73.2C890.941 82 895.041 94.9 895.041 111.9V132.6C895.041 149.6 890.941 162.5 882.741 171.3C874.541 180.1 862.241 184.5 845.841 184.5H830.241V270H797.241V60ZM845.841 154.5C851.241 154.5 855.241 153 857.841 150C860.641 147 862.041 141.9 862.041 134.7V109.8C862.041 102.6 860.641 97.5 857.841 94.5C855.241 91.5 851.241 90 845.841 90H830.241V154.5H845.841ZM912.964 60H961.564C977.964 60 990.264 64.4 998.464 73.2C1006.66 82 1010.76 94.9 1010.76 111.9V132.6C1010.76 149.6 1006.66 162.5 998.464 171.3C990.264 180.1 977.964 184.5 961.564 184.5H945.964V270H912.964V60ZM961.564 154.5C966.964 154.5 970.964 153 973.564 150C976.364 147 977.764 141.9 977.764 134.7V109.8C977.764 102.6 976.364 97.5 973.564 94.5C970.964 91.5 966.964 90 961.564 90H945.964V154.5H961.564Z" fill="white"/>
</svg>
